<svg viewBox="0 0 128 128" fill="none" xmlns="http://www.w3.org/2000/svg">
<path d="M14.9849 15.15C14.7479 8.33502 20.0569 2.05103 27.2339 2.05103H100.774C107.951 2.05103 113.26 8.33502 113.023 15.15C112.795 21.696 113.091 30.176 115.225 37.09C117.366 44.026 120.976 48.409 126.889 48.973V55.36C120.976 55.923 117.366 60.307 115.225 67.243C113.091 74.157 112.795 82.637 113.023 89.183C113.26 95.998 107.951 102.281 100.774 102.281H27.2339C20.0569 102.281 14.7479 95.997 14.9849 89.183C15.2129 82.637 14.9169 74.157 12.7819 67.243C10.6419 60.308 7.02189 55.924 1.10889 55.36V48.973C7.02189 48.41 10.6419 44.026 12.7819 37.09C14.9169 30.176 15.2119 21.696 14.9849 15.15Z" fill="url(#paint0_linear_77_300)"/>
<g filter="url(#filter0_d_77_300)">
<path d="M67.1098 79.174C78.7288 79.174 85.7298 73.485 85.7298 64.102C85.7298 57.009 80.7348 51.874 73.3168 51.061V50.765C78.7668 49.879 83.0428 44.818 83.0428 39.165C83.0428 31.112 76.6848 25.866 66.9958 25.866H45.1958V79.174H67.1098ZM53.6738 32.627H64.9528C71.0828 32.627 74.5658 35.36 74.5658 40.311C74.5658 45.593 70.5158 48.549 63.1738 48.549H53.6738V32.627ZM53.6738 72.414V54.866H64.8768C72.8998 54.866 77.0628 57.821 77.0628 63.584C77.0628 69.347 73.0138 72.414 65.3688 72.414H53.6738Z" fill="url(#paint1_linear_77_300)"/>
<path d="M67.1098 79.174C78.7288 79.174 85.7298 73.485 85.7298 64.102C85.7298 57.009 80.7348 51.874 73.3168 51.061V50.765C78.7668 49.879 83.0428 44.818 83.0428 39.165C83.0428 31.112 76.6848 25.866 66.9958 25.866H45.1958V79.174H67.1098ZM53.6738 32.627H64.9528C71.0828 32.627 74.5658 35.36 74.5658 40.311C74.5658 45.593 70.5158 48.549 63.1738 48.549H53.6738V32.627ZM53.6738 72.414V54.866H64.8768C72.8998 54.866 77.0628 57.821 77.0628 63.584C77.0628 69.347 73.0138 72.414 65.3688 72.414H53.6738Z" fill="white"/>
</g>
<path d="M11.3979 121.43V103.692H16.4449C17.9779 103.692 19.1949 104.067 20.0939 104.818C20.9929 105.568 21.4419 106.545 21.4419 107.749C21.4419 108.756 21.1699 109.63 20.6259 110.372C20.0809 111.114 19.331 111.642 18.374 111.955V112.005C19.5699 112.145 20.5269 112.598 21.2439 113.365C21.9609 114.124 22.3199 115.113 22.3199 116.334C22.3199 117.851 21.7759 119.08 20.6879 120.02C19.5989 120.96 18.226 121.43 16.568 121.43H11.3979ZM13.4759 105.572V111.299H15.6039C16.7419 111.299 17.6369 111.027 18.2879 110.483C18.9389 109.93 19.2649 109.154 19.2649 108.157C19.2649 106.434 18.1309 105.572 15.8629 105.572H13.4759ZM13.4759 113.167V119.55H16.2959C17.5159 119.55 18.4609 119.261 19.1289 118.684C19.8049 118.107 20.1429 117.315 20.1429 116.309C20.1429 114.214 18.7159 113.167 15.8629 113.167H13.4759ZM30.9419 121.73C29.0699 121.73 27.5729 121.14 26.4519 119.961C25.3389 118.774 24.7819 117.203 24.7819 115.248C24.7819 113.121 25.3629 111.459 26.5259 110.263C27.6889 109.068 29.2599 108.47 31.2389 108.47C33.1269 108.47 34.5989 109.051 35.6549 110.214C36.7179 111.377 37.25 112.989 37.25 115.05C37.25 117.071 36.6769 118.691 35.5299 119.912C34.3929 121.124 32.8629 121.73 30.9419 121.73ZM31.09 110.177C29.787 110.177 28.7569 110.622 27.9979 111.513C27.2389 112.395 26.86 113.615 26.86 115.174C26.86 116.675 27.2429 117.859 28.0099 118.724C28.7769 119.591 29.803 120.024 31.09 120.024C32.401 120.024 33.408 119.599 34.109 118.749C34.818 117.9 35.172 116.692 35.172 115.125C35.172 113.542 34.818 112.321 34.109 111.463C33.408 110.606 32.401 110.177 31.09 110.177ZM45.7859 121.73C43.9139 121.73 42.417 121.14 41.296 119.961C40.183 118.774 39.6259 117.203 39.6259 115.248C39.6259 113.121 40.2069 111.459 41.3699 110.263C42.5329 109.068 44.104 108.47 46.083 108.47C47.971 108.47 49.443 109.051 50.499 110.214C51.563 111.377 52.095 112.989 52.095 115.05C52.095 117.071 51.522 118.691 50.375 119.912C49.237 121.124 47.7079 121.73 45.7859 121.73ZM45.9339 110.177C44.6309 110.177 43.6009 110.622 42.8419 111.513C42.0829 112.395 41.7039 113.615 41.7039 115.174C41.7039 116.675 42.087 117.859 42.854 118.724C43.621 119.591 44.6469 120.024 45.9339 120.024C47.2449 120.024 48.2519 119.599 48.9529 118.749C49.6619 117.9 50.0159 116.692 50.0159 115.125C50.0159 113.542 49.6619 112.321 48.9529 111.463C48.2519 110.606 47.2459 110.177 45.9339 110.177ZM61.2099 121.31C60.7319 121.574 60.101 121.706 59.317 121.706C57.099 121.706 55.99 120.469 55.99 117.995V110.499H53.813V108.767H55.99V105.675L58.019 105.019V108.767H61.209V110.499H58.019V117.636C58.019 118.485 58.163 119.092 58.452 119.455C58.74 119.818 59.218 119.999 59.886 119.999C60.397 119.999 60.8389 119.859 61.2099 119.579V121.31ZM63.152 120.97V118.793C64.257 119.609 65.473 120.017 66.801 120.017C68.582 120.017 69.4729 119.424 69.4729 118.237C69.4729 117.898 69.3949 117.614 69.2379 117.383C69.0778 117.132 68.867 116.917 68.619 116.752C68.3343 116.555 68.0271 116.394 67.704 116.27C67.3313 116.111 66.9559 115.958 66.578 115.812C66.0725 115.614 65.5773 115.391 65.094 115.144C64.7066 114.937 64.3488 114.679 64.0299 114.377C63.7548 114.096 63.5365 113.764 63.387 113.4C63.247 113.037 63.1769 112.613 63.1769 112.126C63.1769 111.533 63.3129 111.009 63.5849 110.555C63.8559 110.094 64.2279 109.701 64.6729 109.405C65.1446 109.083 65.6678 108.844 66.22 108.699C66.809 108.542 67.4162 108.463 68.026 108.464C69.123 108.464 70.104 108.654 70.97 109.034V111.087C70.038 110.476 68.9659 110.171 67.7529 110.171C67.3729 110.171 67.0319 110.216 66.7269 110.307C66.4439 110.38 66.1759 110.502 65.9349 110.667C65.726 110.816 65.5528 111.01 65.428 111.235C65.3111 111.456 65.2516 111.703 65.2549 111.953C65.2549 112.282 65.313 112.558 65.428 112.781C65.551 113.004 65.7279 113.202 65.9599 113.375C66.1899 113.548 66.471 113.705 66.801 113.845C67.131 113.985 67.506 114.138 67.927 114.303C68.487 114.517 68.9899 114.74 69.4359 114.971C69.8494 115.172 70.2325 115.43 70.5739 115.738C70.8869 116.018 71.126 116.344 71.291 116.715C71.464 117.086 71.551 117.527 71.551 118.038C71.551 118.665 71.4109 119.209 71.1309 119.671C70.8579 120.133 70.4909 120.516 70.0289 120.821C69.5403 121.138 69.0007 121.368 68.4339 121.502C67.8143 121.653 67.1787 121.728 66.541 121.725C65.238 121.725 64.109 121.473 63.152 120.97ZM80.5419 121.31C80.0649 121.574 79.4339 121.706 78.6499 121.706C76.4319 121.706 75.3229 120.469 75.3229 117.995V110.499H73.146V108.767H75.3229V105.675L77.3519 105.019V108.767H80.5419V110.499H77.3519V117.636C77.3519 118.485 77.496 119.092 77.785 119.455C78.073 119.818 78.5509 119.999 79.2189 119.999C79.7299 119.999 80.1719 119.859 80.5429 119.579L80.5419 121.31ZM89.8579 110.82C89.5029 110.548 88.9919 110.412 88.3239 110.412C87.4579 110.412 86.7319 110.82 86.1469 111.636C85.5699 112.453 85.2809 113.566 85.2809 114.976V121.433H83.2529V108.767H85.2809V111.377H85.3309C85.6199 110.486 86.0609 109.794 86.6539 109.299C87.2469 108.796 87.911 108.544 88.646 108.544C89.173 108.544 89.5769 108.602 89.8579 108.718V110.82ZM101.129 121.43H99.0999V119.45H99.0499C98.1689 120.968 96.8699 121.727 95.1559 121.727C93.8939 121.727 92.9039 121.393 92.1859 120.725C91.4769 120.057 91.1229 119.17 91.1229 118.065C91.1229 115.698 92.5159 114.322 95.3029 113.935L99.1009 113.402C99.1009 111.25 98.2309 110.174 96.4909 110.174C94.9659 110.174 93.5889 110.693 92.3599 111.732V109.654C93.6049 108.863 95.0399 108.467 96.6649 108.467C99.6419 108.467 101.13 110.042 101.13 113.192L101.129 121.43ZM99.0989 115.023L96.0449 115.443C95.1049 115.575 94.3949 115.81 93.9169 116.148C93.4389 116.478 93.1999 117.068 93.1999 117.917C93.1999 118.536 93.4189 119.043 93.8559 119.439C94.3009 119.826 94.8909 120.019 95.6249 120.019C96.6309 120.019 97.4599 119.669 98.1109 118.969C98.7709 118.26 99.1009 117.365 99.1009 116.284L99.0989 115.023ZM107.029 119.6H106.979V127.257H104.951V108.764H106.98V110.99H107.029C108.027 109.308 109.487 108.467 111.408 108.467C113.041 108.467 114.315 109.036 115.23 110.174C116.145 111.303 116.603 112.821 116.603 114.726C116.603 116.845 116.088 118.544 115.057 119.822C114.026 121.092 112.616 121.727 110.827 121.727C109.186 121.727 107.92 121.019 107.029 119.6ZM106.979 114.491V116.261C106.979 117.308 107.317 118.198 107.994 118.932C108.679 119.658 109.544 120.021 110.591 120.021C111.82 120.021 112.781 119.551 113.474 118.611C114.174 117.671 114.524 116.364 114.524 114.689C114.524 113.279 114.199 112.174 113.548 111.374C112.897 110.574 112.014 110.174 110.901 110.174C109.721 110.174 108.773 110.586 108.056 111.411C107.338 112.228 106.979 113.254 106.979 114.491Z" fill="#7952B3"/>
<defs>
<filter id="filter0_d_77_300" x="41.2658" y="22.919" width="48.3942" height="61.168" filterUnits="userSpaceOnUse" color-interpolation-filters="sRGB">
<feFlood flood-opacity="0" result="BackgroundImageFix"/>
<feColorMatrix in="SourceAlpha" type="matrix" values="0 0 0 0 0 0 0 0 0 0 0 0 0 0 0 0 0 0 127 0" result="hardAlpha"/>
<feOffset dy="0.983"/>
<feGaussianBlur stdDeviation="1.965"/>
<feColorMatrix type="matrix" values="0 0 0 0 0 0 0 0 0 0 0 0 0 0 0 0 0 0 0.15 0"/>
<feBlend mode="normal" in2="BackgroundImageFix" result="effect1_dropShadow_77_300"/>
<feBlend mode="normal" in="SourceGraphic" in2="effect1_dropShadow_77_300" result="shape"/>
</filter>
<linearGradient id="paint0_linear_77_300" x1="19.7999" y1="4.70403" x2="129.708" y2="91.95" gradientUnits="userSpaceOnUse">
<stop stop-color="#9013FE"/>
<stop offset="1" stop-color="#6610F2"/>
</linearGradient>
<linearGradient id="paint1_linear_77_300" x1="49.0318" y1="29.374" x2="73.5978" y2="70.922" gradientUnits="userSpaceOnUse">
<stop stop-color="white"/>
<stop offset="1" stop-color="#F1E5FC"/>
</linearGradient>
</defs>
</svg>
