<svg viewBox="0 0 24 24" fill="none" xmlns="http://www.w3.org/2000/svg">
<mask id="path-1-inside-1_15_320" fill="white">
<path d="M6.615 21C6.155 21 5.771 20.846 5.463 20.538C5.15433 20.2293 5 19.845 5 19.385V4.615C5 4.155 5.15433 3.771 5.463 3.463C5.771 3.15433 6.155 3 6.615 3H14.5L19 7.5V14.5H18V8H14V4H6.615C6.46167 4 6.32067 4.064 6.192 4.192C6.064 4.32067 6 4.46167 6 4.615V19.385C6 19.5383 6.064 19.6793 6.192 19.808C6.32067 19.936 6.46167 20 6.615 20H15.5V21H6.615ZM21.95 21.663L18.5 18.213V21.169H17.5V16.5H22.17V17.5H19.188L22.638 20.95L21.95 21.663Z"/>
</mask>
<path d="M6.615 21C6.155 21 5.771 20.846 5.463 20.538C5.15433 20.2293 5 19.845 5 19.385V4.615C5 4.155 5.15433 3.771 5.463 3.463C5.771 3.15433 6.155 3 6.615 3H14.5L19 7.5V14.5H18V8H14V4H6.615C6.46167 4 6.32067 4.064 6.192 4.192C6.064 4.32067 6 4.46167 6 4.615V19.385C6 19.5383 6.064 19.6793 6.192 19.808C6.32067 19.936 6.46167 20 6.615 20H15.5V21H6.615ZM21.95 21.663L18.5 18.213V21.169H17.5V16.5H22.17V17.5H19.188L22.638 20.95L21.95 21.663Z" fill="white"/>
<path d="M8.5 20V4H3.5V20H8.5ZM5.463 3.463L8.99472 7.00236L9.00235 6.99471L5.463 3.463ZM14.5 3L18.0355 -0.535534L16.5711 -2H14.5V3ZM19 7.5H24V5.42893L22.5355 3.96447L19 7.5ZM19 14.5V19.5H24V14.5H19ZM18 14.5H13V19.5H18V14.5ZM18 8H23V3H18V8ZM14 8H9V13H14V8ZM14 4H19V-1H14V4ZM6.192 4.192L2.66566 0.647295L2.65645 0.656454L2.64729 0.665661L6.192 4.192ZM6.192 19.808L2.64729 23.3343L2.65645 23.3435L2.66566 23.3527L6.192 19.808ZM15.5 20H20.5V15H15.5V20ZM15.5 21V26H20.5V21H15.5ZM21.95 21.663L18.4145 25.1985L22.0137 28.7977L25.548 25.1349L21.95 21.663ZM18.5 18.213L22.0355 14.6775L13.5 6.14193V18.213H18.5ZM18.5 21.169V26.169H23.5V21.169H18.5ZM17.5 21.169H12.5V26.169H17.5V21.169ZM17.5 16.5V11.5H12.5V16.5H17.5ZM22.17 16.5H27.17V11.5H22.17V16.5ZM22.17 17.5V22.5H27.17V17.5H22.17ZM19.188 17.5V12.5H7.11693L15.6525 21.0355L19.188 17.5ZM22.638 20.95L26.236 24.4219L29.6465 20.8875L26.1735 17.4145L22.638 20.95ZM6.615 16C6.95136 16 7.38061 16.0583 7.84312 16.2438C8.31104 16.4314 8.70047 16.7044 8.99853 17.0025L1.92747 24.0735C3.22999 25.3761 4.91153 26 6.615 26V16ZM8.99853 17.0025C9.2952 17.2991 9.56786 17.6875 9.75563 18.1551C9.94131 18.6175 10 19.0473 10 19.385H0C0 21.0918 0.626493 22.7726 1.92747 24.0735L8.99853 17.0025ZM10 19.385V4.615H0V19.385H10ZM10 4.615C10 4.95267 9.94133 5.38315 9.75507 5.84659C9.56667 6.31535 9.2929 6.7048 8.99471 7.00235L1.93129 -0.076354C0.62671 1.22541 0 2.90814 0 4.615H10ZM9.00235 6.99471C8.7048 7.2929 8.31535 7.56667 7.84659 7.75507C7.38315 7.94133 6.95267 8 6.615 8V-2C4.90814 -2 3.22541 -1.37329 1.92365 -0.0687096L9.00235 6.99471ZM6.615 8H14.5V-2H6.615V8ZM10.9645 6.53553L15.4645 11.0355L22.5355 3.96447L18.0355 -0.535534L10.9645 6.53553ZM14 7.5V14.5H24V7.5H14ZM19 9.5H18V19.5H19V9.5ZM23 14.5V8H13V14.5H23ZM18 3H14V13H18V3ZM19 8V4H9V8H19ZM14 -1H6.615V9H14V-1ZM6.615 -1C4.90044 -1 3.54645 -0.228932 2.66566 0.647295L9.71834 7.7367C9.09488 8.35693 8.02289 9 6.615 9V-1ZM2.64729 0.665661C1.77107 1.54645 1 2.90044 1 4.615H11C11 6.02289 10.3569 7.09488 9.7367 7.71834L2.64729 0.665661ZM1 4.615V19.385H11V4.615H1ZM1 19.385C1 21.0996 1.77106 22.4535 2.64729 23.3343L9.7367 16.2817C10.3569 16.9051 11 17.9771 11 19.385H1ZM2.66566 23.3527C3.54646 24.2289 4.90045 25 6.615 25V15C8.02288 15 9.09487 15.6431 9.71834 16.2633L2.66566 23.3527ZM6.615 25H15.5V15H6.615V25ZM10.5 20V21H20.5V20H10.5ZM15.5 16H6.615V26H15.5V16ZM25.4855 18.1275L22.0355 14.6775L14.9645 21.7485L18.4145 25.1985L25.4855 18.1275ZM13.5 18.213V21.169H23.5V18.213H13.5ZM18.5 16.169H17.5V26.169H18.5V16.169ZM22.5 21.169V16.5H12.5V21.169H22.5ZM17.5 21.5H22.17V11.5H17.5V21.5ZM17.17 16.5V17.5H27.17V16.5H17.17ZM22.17 12.5H19.188V22.5H22.17V12.5ZM15.6525 21.0355L19.1025 24.4855L26.1735 17.4145L22.7235 13.9645L15.6525 21.0355ZM19.04 17.4781L18.352 18.1911L25.548 25.1349L26.236 24.4219L19.04 17.4781Z" fill="white" mask="url(#path-1-inside-1_15_320)"/>
</svg>
