<svg viewBox="0 0 256 257" fill="none" xmlns="http://www.w3.org/2000/svg">
<g clip-path="url(#clip0_77_292)">
<path d="M196 0.5H60C26.8629 0.5 0 27.3629 0 60.5V196.5C0 229.637 26.8629 256.5 60 256.5H196C229.137 256.5 256 229.637 256 196.5V60.5C256 27.3629 229.137 0.5 196 0.5Z" fill="#CD6799"/>
<mask id="mask0_77_292" style="mask-type:luminance" maskUnits="userSpaceOnUse" x="28" y="53" width="200" height="151">
<path d="M28 53.5H228V203.409H28V53.5Z" fill="white"/>
</mask>
<g mask="url(#mask0_77_292)">
<path d="M200.107 139.663C193.133 139.699 187.073 141.379 181.998 143.861C180.136 140.174 178.274 136.888 177.945 134.478C177.58 131.667 177.142 129.951 177.58 126.592C178.018 123.233 179.99 118.451 179.953 118.086C179.917 117.72 179.515 116.005 175.499 115.968C171.483 115.932 168.015 116.735 167.613 117.794C167.211 118.852 166.445 121.262 165.934 123.745C165.24 127.396 157.901 140.43 153.703 147.257C152.352 144.592 151.184 142.255 150.928 140.393C150.563 137.582 150.125 135.866 150.563 132.507C151.001 129.148 152.973 124.365 152.936 124C152.9 123.635 152.498 121.919 148.482 121.883C144.466 121.846 140.997 122.649 140.596 123.708C140.194 124.767 139.756 127.25 138.916 129.659C138.077 132.069 128.329 153.829 125.773 159.451C124.74 161.726 123.657 163.978 122.524 166.205C122.524 166.205 122.487 166.315 122.378 166.497C122.022 167.195 121.656 167.889 121.282 168.578V168.615C120.735 169.601 120.15 170.513 119.858 170.513C119.639 170.513 119.238 167.885 119.931 164.307C121.392 156.749 124.86 144.993 124.824 144.592C124.824 144.373 125.481 142.328 122.56 141.269C119.712 140.21 118.69 141.963 118.434 141.963C118.179 141.963 117.996 142.584 117.996 142.584C117.996 142.584 121.173 129.367 111.936 129.367C106.167 129.367 98.2079 135.683 94.2659 141.379C89.7832 143.818 85.3042 146.264 80.8289 148.717C78.6759 149.922 76.4489 151.127 74.3669 152.259C74.2209 152.113 74.0749 151.93 73.9289 151.784C62.7569 139.845 42.0929 131.412 42.9689 115.384C43.2979 109.542 45.3059 94.208 82.6549 75.588C113.396 60.437 137.858 64.635 142.093 73.945C148.153 87.235 128.986 111.915 97.2229 115.493C85.1009 116.844 78.7489 112.171 77.1429 110.419C75.4629 108.593 75.2069 108.484 74.5859 108.849C73.5639 109.396 74.2209 111.039 74.5859 111.988C75.5359 114.471 79.4419 118.852 86.0499 121.006C91.8919 122.905 106.094 123.964 123.29 117.319C142.531 109.871 157.573 89.1691 153.155 71.8281C148.738 54.2301 119.53 48.425 91.8919 58.246C75.4619 64.088 57.6459 73.288 44.8309 85.2631C29.6059 99.503 27.1969 111.879 28.1829 117.063C31.7239 135.464 57.0979 147.439 67.2479 156.311C66.7369 156.603 66.2619 156.859 65.8609 157.078C60.7859 159.597 41.4359 169.71 36.6159 180.408C31.1399 192.529 37.4929 201.218 41.6909 202.386C54.7249 206.001 68.1239 199.502 75.3169 188.768C82.5089 178.034 81.6329 164.088 78.3099 157.699C78.2743 157.618 78.2249 157.544 78.1639 157.48C79.4789 156.713 80.8289 155.91 82.1439 155.143C84.5601 153.715 87.0066 152.34 89.4819 151.017C88.2409 154.413 87.3279 158.465 86.8899 164.307C86.3429 171.171 89.1539 180.079 92.841 183.584C94.484 185.117 96.4189 185.154 97.6609 185.154C101.969 185.154 103.904 181.576 106.058 177.341C108.686 172.156 111.06 166.132 111.06 166.132C111.06 166.132 108.102 182.416 116.134 182.416C119.055 182.416 122.012 178.619 123.327 176.684V176.72C123.327 176.72 123.4 176.611 123.546 176.355C123.838 175.88 124.02 175.588 124.02 175.588V175.515C125.189 173.471 127.817 168.834 131.724 161.13C136.762 151.2 141.618 138.787 141.618 138.787C141.618 138.787 142.056 141.817 143.553 146.855C144.429 149.813 146.255 153.062 147.715 156.202C146.547 157.845 145.817 158.757 145.817 158.757L145.853 158.794C144.904 160.035 143.882 161.386 142.75 162.7C138.77 167.447 134.024 172.887 133.367 174.457C132.6 176.319 132.783 177.669 134.243 178.765C135.302 179.568 137.2 179.677 139.135 179.568C142.713 179.312 145.233 178.436 146.474 177.888C148.409 177.195 150.673 176.136 152.79 174.566C156.697 171.682 159.07 167.556 158.851 162.116C158.741 159.122 157.755 156.129 156.551 153.317C156.916 152.806 157.244 152.295 157.609 151.784C163.78 142.766 168.562 132.872 168.562 132.872C168.562 132.872 169 135.902 170.497 140.941C171.227 143.496 172.724 146.271 174.039 148.973C168.234 153.683 164.656 159.159 163.378 162.737C161.078 169.382 162.867 172.375 166.262 173.069C167.796 173.398 169.986 172.668 171.593 171.974C173.637 171.317 176.047 170.185 178.347 168.505C182.253 165.621 186.014 161.605 185.795 156.165C185.685 153.683 185.028 151.236 184.115 148.863C189.044 146.819 195.397 145.687 203.502 146.636C220.881 148.681 224.313 159.524 223.655 164.088C222.998 168.651 219.347 171.134 218.142 171.901C216.938 172.668 216.536 172.923 216.646 173.471C216.792 174.274 217.376 174.237 218.398 174.091C219.822 173.836 227.525 170.404 227.854 162.007C228.402 151.273 218.179 139.553 200.107 139.663ZM66.0429 184.862C60.2749 191.141 52.2429 193.515 48.7739 191.507C45.0499 189.352 46.5099 180.079 53.5939 173.434C57.9009 169.382 63.4509 165.621 67.1379 163.321C67.9779 162.81 69.219 162.08 70.716 161.167C70.972 161.021 71.1179 160.948 71.1179 160.948L71.9939 160.4C74.5859 169.893 72.1029 178.254 66.0429 184.862ZM108.029 156.311C106.021 161.204 101.823 173.726 99.2669 173.033C97.0769 172.448 95.7259 162.956 98.8289 153.573C100.399 148.863 103.721 143.241 105.656 141.05C108.796 137.545 112.264 136.377 113.104 137.801C114.163 139.663 109.271 153.244 108.029 156.311ZM142.677 172.887C141.837 173.325 141.034 173.617 140.669 173.398C140.413 173.252 141.034 172.668 141.034 172.668C141.034 172.668 145.379 167.994 147.095 165.877C148.08 164.635 149.249 163.175 150.49 161.532V162.007C150.49 167.593 145.087 171.353 142.677 172.887ZM169.402 166.789C168.781 166.351 168.891 164.891 170.972 160.327C171.775 158.538 173.674 155.545 176.923 152.66C177.288 153.829 177.544 154.96 177.507 156.019C177.471 163.066 172.432 165.694 169.402 166.789Z" fill="white"/>
</g>
</g>
<defs>
<clipPath id="clip0_77_292">
<rect width="256" height="256" fill="white" transform="translate(0 0.5)"/>
</clipPath>
</defs>
</svg>
